<svg width="250" height="250" viewBox="0 0 250 250" fill="none" xmlns="http://www.w3.org/2000/svg">
<path d="M0 24C0 10.7452 10.7452 0 24 0H226C239.255 0 250 10.7452 250 24V226C250 239.255 239.255 250 226 250H24C10.7452 250 0 239.255 0 226V24Z" fill="white"/>
<path d="M117.188 33.8542V20.8333C117.188 16.5208 120.688 13.0208 125 13.0208C129.313 13.0208 132.813 16.5208 132.813 20.8333V33.8542H145.833C166.927 33.8542 178.542 33.8542 186.938 42.3125C195.313 50.6042 195.313 62.2292 195.313 83.3333V92.5104C204.896 97.2396 210.813 101.625 213.979 109C214.427 110.042 214.792 111 215.083 111.938C218.417 122.906 213.781 133.26 205.344 152.01C205.302 152.115 205.25 152.219 205.208 152.313L192.677 180.281C191.375 183.177 188.531 184.896 185.542 184.896L185.531 184.917C184.458 184.917 183.375 184.698 182.344 184.229C178.406 182.469 176.646 177.844 178.406 173.906L186.073 156.792H166.677C162.365 156.792 158.865 153.292 158.865 148.979C158.865 144.667 162.365 141.167 166.677 141.167H193.073C199.042 127.76 201.542 121.177 200.135 116.563C200.021 116.208 199.844 115.74 199.604 115.177C197.594 110.51 190.479 107.24 174.583 100.302L144.156 87.2083C134.219 82.9063 129.229 80.75 125 80.75C120.781 80.75 115.813 82.8958 105.896 87.1875L105.844 87.2083L105.177 87.5L75.3854 100.323C59.5208 107.25 52.4167 110.51 50.4063 115.188C50.1667 115.74 49.9896 116.208 49.8646 116.625C48.4792 121.177 50.9792 127.76 56.9479 141.156H83.3438C87.6563 141.156 91.1563 144.656 91.1563 148.969C91.1563 153.281 87.6563 156.781 83.3438 156.781H63.9479L71.6146 173.896C73.375 177.833 71.6146 182.458 67.6771 184.219C63.7396 185.979 59.1146 184.219 57.3542 180.281L44.8229 152.313C44.7708 152.208 44.7292 152.115 44.6875 152.01C36.25 133.271 31.6146 122.917 34.9271 112.01C35.2396 111.01 35.5938 110.052 36.0417 109.01C39.2083 101.635 45.125 97.25 54.6875 92.5313V83.3333C54.6875 62.2188 54.6875 50.5938 63.1042 42.2604C71.4479 33.8542 83.0729 33.8542 104.167 33.8542H117.188ZM213.771 235.615C208.333 233.479 203.656 229.177 199.125 225L199.094 224.969C194.406 220.635 189.094 215.74 185.51 216.188C182.927 216.51 179.563 219.646 176.042 225.021C171.844 231.313 166.906 234.896 161.333 235.708C152.229 237.042 144.594 230.729 137.844 225.156L137.833 225.135C132.802 220.969 127.104 216.26 123.083 216.844C120.302 217.26 116.99 220.24 113.51 225.479C109.979 230.917 105.552 234.167 100.417 235.083C91.5104 236.667 83.8125 230.896 76.375 225.313C70.75 221.094 64.3854 216.323 59.9063 217.104C56.4583 217.708 53.1875 221.74 51.0417 225.01C44.5625 234.708 37.4583 236.75 32.6042 236.75H32.5104C27.6771 236.719 20.5938 234.667 14.2917 225C11.9375 221.385 12.9479 216.542 16.5625 214.188C20.1771 211.833 25.0208 212.844 27.375 216.458C29.6146 219.885 31.5833 221.115 32.5938 221.115C33.6354 221.115 35.6667 219.875 38 216.385C43.6042 207.813 49.8958 202.99 57.1875 201.708C68.3125 199.76 77.9688 206.979 85.7188 212.792L85.7396 212.802C89.6042 215.698 95.4583 220.083 97.6771 219.688C98.1667 219.604 99.1875 218.813 100.438 216.896C106.646 207.542 113.292 202.49 120.792 201.375C131.688 199.76 140.615 207.156 147.781 213.094C151.375 216.073 156.813 220.552 159.052 220.24C159.75 220.135 161.208 219.073 162.99 216.396C169.292 206.76 176.042 201.604 183.573 200.667C194.333 199.344 202.833 207.156 209.667 213.458L209.698 213.479C220.083 223.042 220.927 222.146 223.438 219.458C226.385 216.302 231.333 216.135 234.479 219.083C237.635 222.031 237.802 226.979 234.854 230.125C230.646 234.635 225.74 236.948 220.615 236.948L220.625 236.969C218.375 236.969 216.073 236.521 213.771 235.615ZM104.167 49.4792C85.9896 49.4792 77.8021 49.6354 74.1458 53.3229C70.4688 56.9688 70.3125 65.1563 70.3125 83.3333V85.4792L99.6458 72.8542C111.188 67.8542 117.552 65.1042 125.01 65.1042C132.469 65.1042 138.823 67.8542 150.375 72.8542L151.042 73.1458L179.688 85.4584V83.3333C179.688 65.1563 179.531 56.9583 175.896 53.3646C172.188 49.6354 164 49.4792 145.833 49.4792H104.167Z" fill="#0068A5"/>
</svg>
