<svg width="817" height="250" viewBox="0 0 817 250" fill="none" xmlns="http://www.w3.org/2000/svg">
<path d="M371.875 168L371.75 130.875C371.75 125.458 370.333 121.333 367.5 118.5C364.75 115.667 360.917 114.25 356 114.25C352.167 114.25 348.875 115.5 346.125 118C343.375 120.417 340.75 123.25 338.25 126.5L335.25 118.125C338.333 114.458 341.625 111.25 345.125 108.5C348.708 105.667 352.917 104.25 357.75 104.25C362 104.25 365.958 105.208 369.625 107.125C373.375 108.958 376.375 111.792 378.625 115.625C380.958 119.375 382.125 124.125 382.125 129.875V168H371.875ZM285.625 168V105.5H295.875V168H285.625ZM328.75 168L328.625 130.875C328.625 125.458 327.208 121.333 324.375 118.5C321.625 115.667 317.792 114.25 312.875 114.25C309.042 114.25 305.583 115.5 302.5 118C299.5 120.417 296.75 123.25 294.25 126.5V115.375C295.583 113.708 297.208 112.042 299.125 110.375C301.042 108.625 303.292 107.167 305.875 106C308.458 104.833 311.375 104.25 314.625 104.25C319.708 104.25 324.375 105.625 328.625 108.375C332.958 111.042 335.958 115.083 337.625 120.5L339 123.5V168H328.75ZM429.75 169.875C425 169.875 420.625 169.042 416.625 167.375C412.708 165.625 409.25 163.25 406.25 160.25C403.333 157.167 401.083 153.667 399.5 149.75C397.917 145.75 397.125 141.542 397.125 137.125C397.125 131.208 398.417 125.75 401 120.75C403.583 115.75 407.125 111.75 411.625 108.75C416.208 105.75 421.417 104.25 427.25 104.25C433.667 104.25 439 105.583 443.25 108.25C447.5 110.917 450.667 114.542 452.75 119.125C454.917 123.708 456 128.875 456 134.625V140.75H406.75V132H445.875C445.458 127.917 444.292 124.583 442.375 122C440.542 119.417 438.292 117.5 435.625 116.25C432.958 114.917 430.167 114.25 427.25 114.25C423.25 114.25 419.792 115.333 416.875 117.5C413.958 119.583 411.708 122.375 410.125 125.875C408.542 129.292 407.75 133.042 407.75 137.125C407.75 141.125 408.625 144.875 410.375 148.375C412.208 151.792 414.792 154.583 418.125 156.75C421.458 158.833 425.333 159.875 429.75 159.875C434.25 159.875 438.417 158.75 442.25 156.5C446.167 154.167 449.458 151.625 452.125 148.875V160C450.958 161.417 449.208 162.917 446.875 164.5C444.625 166 442 167.25 439 168.25C436.083 169.333 433 169.875 429.75 169.875ZM472.875 168V105.5H483.125V168H472.875ZM483.125 130.25V118C485.542 113.833 488.458 110.5 491.875 108C495.292 105.5 498.792 104.25 502.375 104.25C504.792 104.25 506.958 104.667 508.875 105.5V117.375C507.625 116.625 506.333 116.042 505 115.625C503.667 115.208 502.292 115 500.875 115C496.625 115 493.167 116.5 490.5 119.5C487.917 122.5 485.458 126.083 483.125 130.25ZM532 92.5C529.583 92.5 527.542 91.625 525.875 89.875C524.292 88.125 523.5 86.1667 523.5 84C523.5 81.75 524.292 79.7917 525.875 78.125C527.542 76.375 529.583 75.5 532 75.5C533.583 75.5 535 75.9167 536.25 76.75C537.583 77.5 538.625 78.5417 539.375 79.875C540.125 81.125 540.5 82.5 540.5 84C540.5 85.4167 540.125 86.7917 539.375 88.125C538.625 89.4583 537.583 90.5417 536.25 91.375C535 92.125 533.583 92.5 532 92.5ZM528.125 168V105.5H538.375V168H528.125ZM518.25 115.125V105.5H538.375V115.125H518.25ZM585.25 169.875C579.917 169.875 575.042 168.542 570.625 165.875C566.208 163.125 562.667 159.333 560 154.5C557.417 149.667 556.125 144.083 556.125 137.75C556.125 130.833 557.417 124.875 560 119.875C562.667 114.875 566.292 111.042 570.875 108.375C575.458 105.625 580.583 104.25 586.25 104.25C589.833 104.25 593.458 105.125 597.125 106.875C600.875 108.542 604.083 110.875 606.75 113.875V78H617V168H606.75V157.375C604.583 160.708 601.625 163.625 597.875 166.125C594.208 168.625 590 169.875 585.25 169.875ZM586.875 159.875C590.708 159.875 594.125 158.875 597.125 156.875C600.125 154.875 602.5 152.125 604.25 148.625C606 145.042 606.833 141.042 606.75 136.625L606.625 124.625C604.042 121.375 601.25 118.875 598.25 117.125C595.333 115.375 591.958 114.5 588.125 114.5C583.625 114.5 579.792 115.625 576.625 117.875C573.458 120.042 571 122.875 569.25 126.375C567.583 129.875 566.75 133.667 566.75 137.75C566.75 141.75 567.583 145.458 569.25 148.875C570.917 152.208 573.25 154.875 576.25 156.875C579.333 158.875 582.875 159.875 586.875 159.875ZM648.25 92.5C645.833 92.5 643.792 91.625 642.125 89.875C640.542 88.125 639.75 86.1667 639.75 84C639.75 81.75 640.542 79.7917 642.125 78.125C643.792 76.375 645.833 75.5 648.25 75.5C649.833 75.5 651.25 75.9167 652.5 76.75C653.833 77.5 654.875 78.5417 655.625 79.875C656.375 81.125 656.75 82.5 656.75 84C656.75 85.4167 656.375 86.7917 655.625 88.125C654.875 89.4583 653.833 90.5417 652.5 91.375C651.25 92.125 649.833 92.5 648.25 92.5ZM644.375 168V105.5H654.625V168H644.375ZM634.5 115.125V105.5H654.625V115.125H634.5ZM701.5 169.875C696.167 169.875 691.292 168.542 686.875 165.875C682.458 163.125 678.917 159.333 676.25 154.5C673.667 149.667 672.375 144.083 672.375 137.75C672.375 130.833 673.667 124.875 676.25 119.875C678.917 114.875 682.542 111.042 687.125 108.375C691.708 105.625 696.833 104.25 702.5 104.25C706.083 104.25 709.708 105.125 713.375 106.875C717.125 108.542 720.333 110.875 723 113.875V105.5H733.25V168H723V157.375C720.833 160.708 717.875 163.625 714.125 166.125C710.458 168.625 706.25 169.875 701.5 169.875ZM703.125 159.875C706.958 159.875 710.375 158.875 713.375 156.875C716.375 154.875 718.75 152.125 720.5 148.625C722.25 145.042 723.083 141.042 723 136.625L722.875 124.625C720.292 121.375 717.5 118.833 714.5 117C711.583 115.167 708.208 114.25 704.375 114.25C699.875 114.25 696.042 115.375 692.875 117.625C689.708 119.875 687.25 122.792 685.5 126.375C683.833 129.875 683 133.667 683 137.75C683 141.75 683.833 145.458 685.5 148.875C687.167 152.208 689.5 154.875 692.5 156.875C695.583 158.875 699.125 159.875 703.125 159.875ZM798 168L797.875 130.875C797.875 125.458 796.667 121.333 794.25 118.5C791.917 115.667 788.292 114.25 783.375 114.25C780.042 114.25 776.708 115.5 773.375 118C770.125 120.417 767.25 123.25 764.75 126.5V115.375C766.083 113.708 767.792 112.042 769.875 110.375C771.958 108.625 774.292 107.167 776.875 106C779.542 104.833 782.292 104.25 785.125 104.25C789.375 104.25 793.25 105.208 796.75 107.125C800.25 108.958 803.042 111.792 805.125 115.625C807.208 119.375 808.25 124.125 808.25 129.875V168H798ZM754.5 168V105.5H764.75V168H754.5Z" fill="#0068A5"/>
<path d="M117.188 33.8542V20.8333C117.188 16.5208 120.688 13.0208 125 13.0208C129.313 13.0208 132.813 16.5208 132.813 20.8333V33.8542H145.833C166.927 33.8542 178.542 33.8542 186.938 42.3125C195.313 50.6042 195.313 62.2292 195.313 83.3333V92.5104C204.896 97.2396 210.813 101.625 213.979 109C214.427 110.042 214.792 111 215.083 111.938C218.417 122.906 213.781 133.26 205.344 152.01C205.302 152.115 205.25 152.219 205.208 152.313L192.677 180.281C191.375 183.177 188.531 184.896 185.542 184.896L185.531 184.917C184.458 184.917 183.375 184.698 182.344 184.229C178.406 182.469 176.646 177.844 178.406 173.906L186.073 156.792H166.677C162.365 156.792 158.865 153.292 158.865 148.979C158.865 144.667 162.365 141.167 166.677 141.167H193.073C199.042 127.76 201.542 121.177 200.135 116.563C200.021 116.208 199.844 115.74 199.604 115.177C197.594 110.51 190.479 107.24 174.583 100.302L144.156 87.2083C134.219 82.9063 129.229 80.75 125 80.75C120.781 80.75 115.813 82.8958 105.896 87.1875L105.844 87.2083L105.177 87.5L75.3854 100.323C59.5208 107.25 52.4167 110.51 50.4063 115.188C50.1667 115.74 49.9896 116.208 49.8646 116.625C48.4792 121.177 50.9792 127.76 56.9479 141.156H83.3438C87.6563 141.156 91.1563 144.656 91.1563 148.969C91.1563 153.281 87.6563 156.781 83.3438 156.781H63.9479L71.6146 173.896C73.375 177.833 71.6146 182.458 67.6771 184.219C63.7396 185.979 59.1146 184.219 57.3542 180.281L44.8229 152.313C44.7708 152.208 44.7292 152.115 44.6875 152.01C36.25 133.271 31.6146 122.917 34.9271 112.01C35.2396 111.01 35.5938 110.052 36.0417 109.01C39.2083 101.635 45.125 97.25 54.6875 92.5313V83.3333C54.6875 62.2188 54.6875 50.5938 63.1042 42.2604C71.4479 33.8542 83.0729 33.8542 104.167 33.8542H117.188ZM213.771 235.615C208.333 233.479 203.656 229.177 199.125 225L199.094 224.969C194.406 220.635 189.094 215.74 185.51 216.188C182.927 216.51 179.562 219.646 176.042 225.021C171.844 231.313 166.906 234.896 161.333 235.708C152.229 237.042 144.594 230.729 137.844 225.156L137.833 225.135C132.802 220.969 127.104 216.26 123.083 216.844C120.302 217.26 116.99 220.24 113.51 225.479C109.979 230.917 105.552 234.167 100.417 235.083C91.5104 236.667 83.8125 230.896 76.375 225.313C70.75 221.094 64.3854 216.323 59.9063 217.104C56.4583 217.708 53.1875 221.74 51.0417 225.01C44.5625 234.708 37.4583 236.75 32.6042 236.75H32.5104C27.6771 236.719 20.5938 234.667 14.2917 225C11.9375 221.385 12.9479 216.542 16.5625 214.188C20.1771 211.833 25.0208 212.844 27.375 216.458C29.6146 219.885 31.5833 221.115 32.5938 221.115C33.6354 221.115 35.6667 219.875 38 216.385C43.6042 207.813 49.8958 202.99 57.1875 201.708C68.3125 199.76 77.9688 206.979 85.7188 212.792L85.7396 212.802C89.6042 215.698 95.4583 220.083 97.6771 219.688C98.1667 219.604 99.1875 218.813 100.438 216.896C106.646 207.542 113.292 202.49 120.792 201.375C131.688 199.76 140.615 207.156 147.781 213.094C151.375 216.073 156.813 220.552 159.052 220.24C159.75 220.135 161.208 219.073 162.99 216.396C169.292 206.76 176.042 201.604 183.573 200.667C194.333 199.344 202.833 207.156 209.667 213.458L209.698 213.479C220.083 223.042 220.927 222.146 223.438 219.458C226.385 216.302 231.333 216.135 234.479 219.083C237.635 222.031 237.802 226.979 234.854 230.125C230.646 234.635 225.74 236.948 220.615 236.948L220.625 236.969C218.375 236.969 216.073 236.521 213.771 235.615ZM104.167 49.4792C85.9896 49.4792 77.8021 49.6354 74.1458 53.3229C70.4688 56.9688 70.3125 65.1563 70.3125 83.3333V85.4792L99.6458 72.8542C111.188 67.8542 117.552 65.1042 125.01 65.1042C132.469 65.1042 138.823 67.8542 150.375 72.8542L151.042 73.1458L179.688 85.4584V83.3333C179.688 65.1563 179.531 56.9583 175.896 53.3646C172.188 49.6354 164 49.4792 145.833 49.4792H104.167Z" fill="#0068A5"/>
</svg>
